<?xml version="1.0" standalone="no"?>
<!DOCTYPE svg PUBLIC "-//W3C//DTD SVG 1.1//EN" "http://www.w3.org/Graphics/SVG/1.1/DTD/svg11.dtd" >
<svg xmlns="http://www.w3.org/2000/svg">
<metadata>Generated by IcoMoon</metadata>
<defs>
<font id="icomoon" horiz-adv-x="1024">
<font-face units-per-em="1024" ascent="960" descent="-64" />
<missing-glyph horiz-adv-x="1024" />
<glyph unicode="&#x20;" horiz-adv-x="512" d="" />
<glyph unicode="&#xe900;" horiz-adv-x="1028" d="M997.353 448c0-259.118-210.057-469.175-469.175-469.175s-469.175 210.057-469.175 469.175c0 259.118 210.057 469.175 469.175 469.175s469.175-210.057 469.175-469.175z" />
<glyph unicode="&#xe901;" horiz-adv-x="1028" d="M961.19 462.275c0-259.118-210.057-469.175-469.175-469.175s-469.175 210.057-469.175 469.175c0 259.118 210.057 469.175 469.175 469.175s469.175-210.057 469.175-469.175z" />
<glyph unicode="&#xe902;" horiz-adv-x="1028" d="M492.015-8.803c-259.753 0-471.078 211.325-471.078 471.078s211.325 471.078 471.078 471.078c259.753 0 471.078-211.325 471.078-471.078s-211.325-471.078-471.078-471.078zM492.015 929.546c-257.656 0-467.271-209.615-467.271-467.271s209.615-467.271 467.271-467.271 467.271 209.615 467.271 467.271-209.615 467.271-467.271 467.271z" />
<glyph unicode="&#xe903;" horiz-adv-x="1028" d="M716.671 164.527h-170.27v125.248h-121.464v-125.248h-171.792v329.153h-118.986l356.889 325.822 351.125-325.822h-125.507v-329.153zM557.825 175.947h147.426v329.153h107.836l-322.099 298.882-327.379-298.882h100.961v-329.153h148.956v125.248h144.304l-0.004-125.248z" />
<glyph unicode="&#xe904;" horiz-adv-x="1028" d="M997.353 448c0-259.118-210.057-469.175-469.175-469.175s-469.175 210.057-469.175 469.175c0 259.118 210.057 469.175 469.175 469.175s469.175-210.057 469.175-469.175z" />
<glyph unicode="&#xe905;" horiz-adv-x="1028" d="M961.19 462.275c0-259.118-210.057-469.175-469.175-469.175s-469.175 210.057-469.175 469.175c0 259.118 210.057 469.175 469.175 469.175s469.175-210.057 469.175-469.175z" />
<glyph unicode="&#xe906;" horiz-adv-x="1028" d="M492.015-8.803c-259.753 0-471.078 211.325-471.078 471.078s211.325 471.078 471.078 471.078c259.753 0 471.078-211.325 471.078-471.078s-211.325-471.078-471.078-471.078zM492.015 929.546c-257.656 0-467.271-209.615-467.271-467.271s209.615-467.271 467.271-467.271 467.271 209.615 467.271 467.271-209.615 467.271-467.271 467.271z" />
<glyph unicode="&#xe907;" horiz-adv-x="1028" d="M807.498 662.56l-110.013 110.090c-8.698 8.698-19.033 12.033-30.594 13.11-19.582 1.823-32.974-8.877-35.912-12.063l-385.408-351.803-81.121-246.662 266.255 33.183 376.238 376.238c34.31 37.96 12.124 62.719 0.556 77.908zM664.020 671.643l49.361-50.119-344.14-327.406-52.974 59.658 347.753 317.866zM603.269 733.315l51.919-52.711-347.273-317.432-48.379 54.478 343.733 315.666zM248.821 197.893c-0.411 46.076-27.918 51.919-42.448 56.202l47.066 151.487 165.191-186.006-169.809-21.683zM430.099 225.586l-52.513 59.129 344.616 327.851 47.077-47.801-339.18-339.18z" />
<glyph unicode="&#xe908;" glyph-name="culture-w" horiz-adv-x="1044" d="M521.505-29.42c-269.51 0-488.768 219.258-488.768 488.764s219.262 488.768 488.768 488.768 488.772-219.262 488.772-488.768c0.004-269.506-219.262-488.764-488.772-488.764zM521.505 936.695c-263.21 0-477.348-214.138-477.348-477.351s214.138-477.344 477.348-477.344c263.21 0 477.344 214.134 477.344 477.344 0.011 263.214-214.126 477.351-477.344 477.351zM574.612 120.358l-53.103 29.761-53.1-29.761-41.303 44.713-59.704-11.896-25.459 55.285-60.454 7.138-7.13 60.446-55.292 25.467 11.9 59.697-44.721 41.303 29.768 53.103-29.768 53.103 44.721 41.299-11.9 59.7 55.292 25.459 7.13 60.454 60.454 7.13 25.459 55.292 59.704-11.9 41.303 44.717 53.1-29.765 53.103 29.765 41.303-44.717 59.7 11.9 25.459-55.292 60.458-7.13 7.134-60.454 55.285-25.463-11.9-59.7 44.713-41.299-29.757-53.103 29.757-53.103-44.713-41.303 11.9-59.697-55.285-25.467-7.134-60.446-60.458-7.138-25.459-55.285-59.7 11.896-41.303-44.71zM521.509 163.21l50.831-28.489 39.532 42.802 57.142-11.39 24.363 52.921 57.869 6.825 6.822 57.858 52.921 24.374-11.393 57.138 42.802 39.532-28.485 50.831 28.485 50.827-42.802 39.529 11.393 57.142-52.921 24.37-6.822 57.866-57.869 6.825-24.363 52.921-57.142-11.39-39.532 42.799-50.831-28.489-50.827 28.489-39.532-42.799-57.142 11.39-24.37-52.921-57.862-6.825-6.825-57.866-52.921-24.37 11.39-57.138-42.802-39.529 28.493-50.827-28.493-50.831 42.802-39.532-11.39-57.138 52.921-24.374 6.825-57.858 57.866-6.825 24.37-52.921 57.142 11.39 39.532-42.802 50.823 28.485zM304.535 449.644l69.392 75.845 119.42-104.893 174.289 193.65 79.073-72.616-246.906-271.116z" />
<glyph unicode="&#xe909;" glyph-name="left1" d="M729.4 89l-351.5 351.5c-1.9 1.9-3.1 4.5-3.1 7.5s1.2 5.6 3.2 7.6l351.4 351.4c13.9 13.9 13.9 36.7 0 50.6s-36.7 13.9-50.6 0l-384.2-384.3c-13.9-13.9-13.9-36.7 0-50.6 0.1-0.1 0.1-0.1 0.2-0.1l384.1-384.1c13.9-13.9 36.7-13.9 50.6 0 13.8 13.8 13.8 36.6-0.1 50.5zM382.8 437.8c0.2 0 0.3-0.1 0.5-0.1-0.2 0-0.3 0-0.5 0.1zM381.1 438.4c0.1 0 0.1-0.1 0.2-0.1-0.1 0-0.1 0-0.2 0.1zM385.4 437.4v0z" />
<glyph unicode="&#xe90d;" horiz-adv-x="1028" d="M997.353 448c0-259.118-210.057-469.175-469.175-469.175s-469.175 210.057-469.175 469.175c0 259.118 210.057 469.175 469.175 469.175s469.175-210.057 469.175-469.175z" />
<glyph unicode="&#xe90e;" horiz-adv-x="1028" d="M961.19 462.275c0-259.118-210.057-469.175-469.175-469.175s-469.175 210.057-469.175 469.175c0 259.118 210.057 469.175 469.175 469.175s469.175-210.057 469.175-469.175z" />
<glyph unicode="&#xe90f;" horiz-adv-x="1028" d="M492.015-8.803c-259.753 0-471.078 211.325-471.078 471.078s211.325 471.078 471.078 471.078c259.753 0 471.078-211.325 471.078-471.078s-211.325-471.078-471.078-471.078zM492.015 929.546c-257.656 0-467.271-209.615-467.271-467.271s209.615-467.271 467.271-467.271 467.271 209.615 467.271 467.271-209.615 467.271-467.271 467.271z" />
<glyph unicode="&#xe910;" horiz-adv-x="1028" d="M592.291 432.484c234.584 54.051 225.942 294.040 225.942 294.040h-648.626c0 0-8.649-239.993 225.935-294.040 0 0 14.595-30.819 61.623-58.379 0-127.562 0-153.322 0-153.322h-86.465v-85.407h248.638v85.407h-88.658c0 0 0 25.767 0 153.322 47.016 27.56 61.611 58.379 61.611 58.379zM696.423 690.848h84.318c-21.622-171.526-146.295-200.35-146.295-200.35 40.366 46.849 61.977 200.35 61.977 200.35zM207.076 690.848h84.326c0 0 21.618-153.509 61.981-200.354 0 0-124.681 28.828-146.306 200.354z" />
<glyph unicode="&#xe911;" glyph-name="phone" horiz-adv-x="1028" d="M521.505-29.42c-269.51 0-488.768 219.258-488.768 488.764s219.262 488.768 488.768 488.768 488.772-219.262 488.772-488.768c0.004-269.506-219.262-488.764-488.772-488.764zM521.505 936.695c-263.21 0-477.348-214.138-477.348-477.351s214.138-477.344 477.348-477.344c263.21 0 477.344 214.134 477.344 477.344 0.011 263.214-214.126 477.351-477.344 477.351zM619.151 119.018c-19.696 0-38.41 4.861-55.62 14.45-89.354 49.78-342.183 322.45-360.025 344.525-21.051 26.045-44.569 87.862 34.451 209.204l3.746 5.756 138.571-131.845-1.606-3.666c-0.167-0.392-17.092-40.309 6.646-66.933 31.915-35.798 179.406-161.179 180.894-162.439 0.076-0.069 10.141-8.276 26.422-8.276 9.905 0 20.164 2.988 30.492 8.885l3.917 2.238 132.393-141.754-3.746-3.902c-2.6-2.714-64.546-66.244-136.535-66.244zM243.811 675.18c-70.664-111.422-50.203-166.775-31.42-190.011 17.724-21.93 268.513-292.594 356.702-341.73 15.486-8.634 32.334-13.004 50.066-13.004 57.344 0 109.994 45.414 124.426 58.966l-118.795 127.197c-10.758-5.466-21.553-8.23-32.155-8.23-20.663 0-33.293 10.548-33.822 10.998-6.091 5.173-149.573 127.159-182.009 163.543-24.207 27.149-14.233 63.53-10.053 75.315l-122.937 116.957zM401.031 580.477c-10.396 0-22.326 6.418-35.456 19.075-29.376 28.314-93.603 90.831-97.291 94.421-6.304 5.322-13.872 20.065 1.382 39.133 15.425 19.292 47.131 54.489 49.281 56.872 1.256 1.542 8.519 9.844 19.361 9.844 7.054 0 13.803-3.418 20.065-10.16l108.609-98.715c2.334-1.66 12.92-9.871 14.302-23.438 1.115-10.887-3.887-21.949-14.873-32.871-27.244-27.085-47.435-45.376-50.149-47.823-1.507-1.724-6.365-6.338-15.231-6.338zM338.308 788.413c-5.996 0-10.457-5.573-10.503-5.63l-0.274-0.324c-0.331-0.365-33.274-36.872-48.95-56.472-11.843-14.816-3.769-22.547-2.806-23.385l0.312-0.282c0.67-0.651 67.333-65.547 97.409-94.535 13.613-13.122 22.486-15.878 27.53-15.878 4.53 0 6.54 2.322 6.624 2.421l0.681 0.727c0.209 0.187 21.089 18.927 50.031 47.698 8.42 8.371 12.311 16.315 11.569 23.609-0.963 9.429-9.543 15.284-9.631 15.341l-0.716 0.556-109.442 99.492c-4.062 4.42-8.044 6.662-11.835 6.662zM780.193 208.422c-10.72 0-22.73 7.073-35.703 21.028-27.777 29.875-88.49 95.814-91.97 99.606-6.007 5.653-12.745 20.788 3.525 38.996 16.46 18.424 50.043 51.832 52.319 54.089 1.287 1.416 8.497 8.805 18.706 8.805 7.48 0 14.424-3.795 20.647-11.283l103.040-104.513c2.238-1.785 12.357-10.56 13.004-24.188 0.514-10.937-5.086-21.702-16.654-32.007-28.699-25.562-49.868-42.726-52.7-45.010-1.523-1.549-6.19-5.524-14.214-5.524zM727.070 419.522c-5.733 0-10.217-5.002-10.259-5.055l-0.289-0.312c-0.35-0.35-35.242-34.98-51.958-53.701-12.634-14.146-4.998-22.311-4.085-23.198l0.293-0.297c0.64-0.689 63.655-69.137 92.088-99.724 14.054-15.135 23.16-17.389 27.34-17.389 4.027 0 5.95 1.991 6.022 2.075l0.716 0.689c0.221 0.175 22.102 17.743 52.578 44.889 8.82 7.865 13.152 15.554 12.848 22.848-0.396 9.532-8.721 15.897-8.805 15.958l-0.662 0.575-103.82 105.339c-4.005 4.857-8.036 7.305-12.006 7.305z" />
<glyph unicode="&#xe912;" glyph-name="home-w" horiz-adv-x="1028" d="M521.505-29.42c-269.51 0-488.768 219.258-488.768 488.764s219.262 488.768 488.768 488.768 488.772-219.262 488.772-488.768c0.004-269.506-219.262-488.764-488.772-488.764zM521.505 936.695c-263.21 0-477.348-214.138-477.348-477.351s214.138-477.344 477.348-477.344c263.21 0 477.344 214.134 477.344 477.344 0.011 263.214-214.126 477.351-477.344 477.351zM807.491 396.994l-283.599 269.735-276.64-261.512-76.69 84.436 353.417 315.301 356.101-329.911-72.59-78.049zM523.919 683.817l283.024-269.202 55.593 59.773-338.712 313.797-335.666-299.457 59.769-65.802 275.993 260.892zM781.712 126.335h-165.408v193.319h-184.012v-193.319h-179.878v238.394l271.6 254.013 257.694-254.108v-238.299zM628.709 138.741h140.596v220.701l-245.516 242.106-258.969-242.201v-220.602h155.069v193.319h208.82v-193.323z" />
<glyph unicode="&#xe913;" glyph-name="scale" horiz-adv-x="1028" d="M521.505-29.42c-269.51 0-488.768 219.258-488.768 488.764s219.262 488.768 488.768 488.768 488.768-219.262 488.768-488.768c0.008-269.506-219.258-488.764-488.768-488.764zM521.505 936.695c-263.21 0-477.348-214.138-477.348-477.351s214.138-477.344 477.348-477.344c263.21 0 477.344 214.134 477.344 477.344 0.011 263.214-214.13 477.351-477.344 477.351zM728.483 358.345c-32.064 34.778-426.171 422.105-426.171 422.105l-103.154-103.15c0 0 358.316-363.745 438.39-437.035s188.146-76.004 188.146-76.004c-10.853 85.51-65.148 159.31-97.211 194.084zM283.134 626.648l-53.096 53.876 70.489 70.161 52.296-52.631-69.689-71.406zM671.481 232.123l15.607 25.113c0 0 44.706-52.506 104.254-78.974-0.004 0-64.896 5.68-119.861 53.861zM390.532 445.214l-166.939-171.012 131.651-137.083 168.949 175.081-133.661 133.013zM368.922 169.442l-62.681 63.092 23.43 23.274 62.681-63.096-23.43-23.27zM402.169 204.794l-48.238 48.554 19.962 19.829 48.238-48.558-19.962-19.825zM398.317 275.309l15.965 15.859 36.087-36.323-15.965-15.855-36.087 36.32zM718.985 773.662l-182.892-188.995 131.316-131.312 176.444 195.443-124.867 124.863zM684.698 511.48l-45.387 42.151 23.411 25.208 45.387-42.151-23.411-25.208zM679.692 595.429l23.411 25.208 45.387-42.151-23.411-25.208-45.387 42.151z" />
<glyph unicode="&#xe914;" glyph-name="date" horiz-adv-x="1028" d="M521.505-29.42c-269.51 0-488.768 219.258-488.768 488.764s219.262 488.768 488.768 488.768 488.772-219.262 488.772-488.768c0.004-269.506-219.262-488.764-488.772-488.764zM521.505 936.695c-263.21 0-477.348-214.138-477.348-477.351s214.138-477.344 477.348-477.344c263.21 0 477.344 214.134 477.344 477.344 0.011 263.214-214.126 477.351-477.344 477.351zM732.788 685.442v35.212h-108.491v-35.212h-189.383v35.212h-108.491v-35.212h-78.037v-510.097h441.576l116.104 116.104v393.993h-73.279zM625.409 651.182h106.907v-35.212h-106.907v35.212zM328.327 651.182h105.636v-35.212h-105.636v35.212zM757.532 330.468h-103.732v-117.056h-354.974v343.554h458.706v-226.498zM472.030 255.286h64.714l106.587 181.77v70.424h-213.175v-59.48h153.219z" />
<glyph unicode="&#xe915;" glyph-name="product" horiz-adv-x="1028" d="M521.505-29.42c-269.51 0-488.768 219.258-488.768 488.764s219.262 488.768 488.768 488.768 488.772-219.262 488.772-488.768c0.004-269.506-219.262-488.764-488.772-488.764zM521.505 936.695c-263.21 0-477.348-214.138-477.348-477.351s214.138-477.344 477.348-477.344c263.21 0 477.344 214.134 477.344 477.344 0.011 263.214-214.126 477.351-477.344 477.351zM518.19 453.086l-296.233 168.549 296.96 164.727 292.099-165.469-292.826-167.807zM247.8 621.498l270.363-153.832 267.279 153.166-266.594 151.015-271.048-150.349zM536.001 116.65l-2.455 316.347 283.61 162.896 1.671-298.129-282.826-181.115zM546.264 425.704l2.215-286.027 257.648 164.99-1.507 269.426-258.356-148.389zM504.585 112.356l-283.61 182.774 2.452 296.492 282.83-161.259-1.671-318.007zM233.693 301.994l258.353-166.493 1.511 287.531-257.652 146.904-2.212-267.942z" />
<glyph unicode="&#xe916;" glyph-name="join" horiz-adv-x="1028" d="M521.505-29.42c-269.51 0-488.768 219.258-488.768 488.764s219.262 488.768 488.768 488.768 488.772-219.262 488.772-488.768c0.004-269.506-219.262-488.764-488.772-488.764zM521.505 936.695c-263.21 0-477.348-214.138-477.348-477.351s214.138-477.344 477.348-477.344c263.21 0 477.344 214.134 477.344 477.344 0.011 263.214-214.126 477.351-477.344 477.351zM885.722 336.289l-0.491 1.108c-36.213 81.654-147.163 129.359-148.282 129.831-8.291 3.506-12.787 10.613-12.947 15.817-0.11 3.609 1.835 4.579 2.478 4.899l0.362 0.198c42.608 25.177 65.132 60.934 65.132 103.401 0 100.276-79.853 127.033-127.033 127.033-34.138 0-98.072-19.49-119.941-75.841-5.558 0.647-10.895 0.963-15.862 0.963-1.77 0-3.643-0.072-5.565-0.179-20.716 58.676-86.309 78.863-121.049 78.863-47.184 0-127.033-26.753-127.033-127.033 0-42.467 22.524-78.22 65.132-103.401l0.362-0.198c0.643-0.32 2.592-1.29 2.478-4.899-0.16-5.204-4.659-12.311-12.947-15.817-1.119-0.472-112.069-48.177-148.282-129.831l-0.491-1.108v-76.073h132.876c-0.773-2.353-1.058-3.788-1.115-4.119l-0.088-74.565h436.502v74.878h135.804v76.073zM193.163 275.443v62.224c29.007 63.812 112.073 110.276 141.799 122.85 13.384 5.661 19.646 17.134 19.917 25.988 0.206 6.761-3.007 12.49-8.607 15.371-39.392 23.327-59.365 54.778-59.365 93.473 0 112.37 103.782 115.613 115.613 115.613 20.495 0 87.79-12.703 109.359-68.657-44.321-6.7-110.276-38.592-110.276-116.903 0-75.761 37.774-96.317 58.067-107.36 3.658-1.991 8.211-4.469 8.919-5.554 3.43-8.999-5.642-17.606-14.561-22.303-90.557-50.203-122.99-92.895-134.437-114.741h-126.428zM738.498 196.758h-413.662v61.543c1.268 4.979 17.016 56.628 134.624 121.837 17.043 8.969 24.816 23.263 19.802 36.415-1.839 4.831-6.997 7.636-14.134 11.515-18.211 9.913-52.106 28.356-52.106 97.329 0 88.738 91.585 106.877 116.112 106.877 11.831 0 115.613-3.243 115.613-115.613 0-38.699-19.974-70.146-59.365-93.473-5.6-2.882-8.809-8.611-8.607-15.371 0.27-8.854 6.536-20.328 19.917-25.988 29.726-12.577 112.792-59.042 141.799-122.85v-62.22zM874.302 271.636h-129.336c-40.031 76.065-142.743 120.265-143.821 120.718-8.291 3.506-12.787 10.613-12.947 15.817-0.11 3.609 1.835 4.579 2.478 4.899l0.362 0.198c42.608 25.177 65.132 60.934 65.132 103.401 0 82.56-54.12 115.259-99.579 124.247 22.562 53.884 88.155 66.244 108.35 66.244 11.831 0 115.613-3.243 115.613-115.613 0-38.699-19.974-70.146-59.365-93.473-5.6-2.882-8.809-8.611-8.607-15.371 0.27-8.854 6.536-20.328 19.917-25.988 29.726-12.577 112.792-59.042 141.799-122.85v-62.228z" />
<glyph unicode="&#xe917;" glyph-name="tel" horiz-adv-x="1028" d="M521.505-29.42c-269.51 0-488.768 219.258-488.768 488.764s219.262 488.768 488.768 488.768 488.772-219.262 488.772-488.768c0.004-269.506-219.262-488.764-488.772-488.764zM521.505 936.695c-263.21 0-477.348-214.138-477.348-477.351s214.138-477.344 477.348-477.344c263.21 0 477.344 214.134 477.344 477.344 0.011 263.214-214.126 477.351-477.344 477.351zM214.465 468.499c-19.289 49.217-9.882 100.953 37.009 136.866 46.887 35.916 54.774 33.229 54.774 33.229s38.908 19.452 75.818-38.41c17.956-25.935 44.98-59.381 27.024-85.319-17.956-25.935-40.99-59.491-24.032-86.347 16.959-26.86 90.782-103.675 113.725-119.633 22.947-15.961 60.603 8.972 72.826 21.942 10.442 11.085 49.217 35.25 82.137-0.662 32.92-35.92 71.828-71.828 62.517-103.085-8.717-29.251-58.851-101.749-125.701-101.753-72.152-0.019-277.961 92.765-376.097 343.173zM590.57 123.419h-0.019c-82.049 0-283.648 103.991-377.856 344.384-21.123 53.891-7.408 104.585 37.622 139.074 39.67 30.385 52.003 33.663 55.46 33.663 0.049 0 0.099 0 0.148 0 1.77 0.777 7.808 3.102 16.532 3.102 15.577 0 38.84-7.362 61.212-42.433 1.515-2.189 3.141-4.492 4.8-6.844 17.526-24.862 39.338-55.806 22.185-80.584-17.039-24.606-40.366-58.307-23.986-84.25 17.37-27.511 91.048-103.675 113.203-119.085 4.602-3.201 10.16-4.827 16.513-4.827 19.684 0 43.762 15.817 53.842 26.51 6.152 6.532 23.282 18.881 44.085 18.881 15.2 0 28.942-6.582 40.842-19.563 3.955-4.313 7.994-8.626 12.025-12.928 30.553-32.623 59.419-63.439 50.914-91.985-8.748-29.346-59.525-103.108-127.524-103.116zM305.632 636.793c-0.898-0.057-11.279-0.978-53.001-32.935-43.587-33.385-56.849-82.464-36.396-134.662 53.629-136.839 136.809-219.452 197.149-264.66 71.28-53.404 140.341-77.31 177.167-77.31v-1.903l0.019 1.903c66.008 0.008 115.362 71.821 123.874 100.394 7.88 26.453-21.565 57.892-50.043 88.296-4.043 4.317-8.089 8.637-12.048 12.958-11.15 12.159-23.948 18.325-38.036 18.325-18.089 0-34.618-10.575-41.314-17.686-8.523-9.041-33.571-27.705-56.613-27.705-7.145 0-13.434 1.854-18.687 5.508-22.364 15.55-96.72 92.419-114.25 120.177-17.728 28.071 6.433 62.966 24.074 88.445 15.642 22.593-5.322 52.331-22.166 76.221-1.664 2.36-3.293 4.675-4.857 6.928-21.485 33.689-43.419 40.747-58.044 40.747-9.296 0-15.303-2.916-15.364-2.946l-0.712-0.35-0.75 0.255zM800.806 455.004l-34.26 0.404c1.161 97.752-35.478 170.494-108.894 216.209-55.89 34.797-113.386 40.473-113.961 40.526l3.083 34.119c2.627-0.236 65.098-6.205 127.794-44.828 58.494-36.027 127.878-108.034 126.238-246.43zM701.729 438.354l-34.26 0.438c1.926 151.099-149.534 166.078-155.987 166.642l2.882 34.138c1.896-0.156 189.695-17.945 187.365-201.218zM602.698 416.393l-34.26 0.461c1.032 77.055-80.519 84.436-83.991 84.71l2.718 34.154c40.469-3.22 116.698-32.304 115.533-119.325z" />
<glyph unicode="&#xe91d;" glyph-name="home" horiz-adv-x="1028" d="M521.505-29.42c-269.51 0-488.768 219.258-488.768 488.764s219.262 488.768 488.768 488.768 488.772-219.262 488.772-488.768c0.004-269.506-219.262-488.764-488.772-488.764zM521.505 936.695c-263.21 0-477.348-214.138-477.348-477.351s214.138-477.344 477.348-477.344c263.21 0 477.344 214.134 477.344 477.344 0.011 263.214-214.126 477.351-477.344 477.351zM521.897 757.218l-319.85-197.156 62.434-82.152 257.416 165.397 257.416-165.397 62.43 82.152zM300.626 443.953v-267.256h124.867v152.256h192.798v-152.256h124.871v267.256l-221.264 145.682z" />
<glyph unicode="&#xe91e;" glyph-name="left" d="M512 887.071c59.342 0 116.886-11.589 171.033-34.466 52.349-22.178 99.303-53.847 139.764-94.208 40.361-40.361 72.13-87.415 94.208-139.764 22.978-54.247 34.566-111.791 34.566-171.133s-11.589-116.886-34.466-171.033c-22.178-52.349-53.847-99.303-94.208-139.764-40.361-40.361-87.415-72.13-139.764-94.208-54.247-22.978-111.791-34.566-171.133-34.566s-116.886 11.589-171.033 34.466c-52.349 22.178-99.303 53.847-139.764 94.208-40.361 40.361-72.13 87.415-94.208 139.764-22.978 54.247-34.566 111.791-34.566 171.133s11.589 116.886 34.466 171.033c22.178 52.349 53.847 99.303 94.208 139.764 40.361 40.361 87.415 72.13 139.764 94.208 54.247 22.978 111.791 34.566 171.133 34.566zM512 959.001c-282.524 0-511.5-228.976-511.5-511.5s228.976-511.5 511.5-511.5 511.5 228.976 511.5 511.5-228.976 511.5-511.5 511.5v0zM331.177 448.5c0-9.99 4.096-19.481 11.389-26.274l235.57-220.784c14.486-13.587 37.264-12.887 50.85 1.598s12.887 37.264-1.598 50.85l-207.597 194.61 207.497 194.51c14.486 13.587 15.185 36.364 1.598 50.85s-36.364 15.185-50.85 1.598l-235.57-220.784c-7.193-6.693-11.289-16.184-11.289-26.174z" />
<glyph unicode="&#xe91f;" glyph-name="service" horiz-adv-x="1028" d="M521.505-29.42c-269.51 0-488.768 219.258-488.768 488.764s219.262 488.768 488.768 488.768 488.772-219.262 488.772-488.768c0.004-269.506-219.262-488.764-488.772-488.764zM521.505 936.695c-263.21 0-477.348-214.138-477.348-477.351s214.138-477.344 477.348-477.344c263.21 0 477.344 214.134 477.344 477.344 0.011 263.214-214.126 477.351-477.344 477.351zM380.551 526.292c6.825-12.284 50.043-87.082 97.097-102.381 21.915-7.122 31.302-8.036 33.67-8.15v-0.019h15.493v0.019c2.364 0.11 11.751 1.028 33.67 8.15 47.051 15.299 90.268 90.097 97.101 102.381 31.961 20.724 36.103 48.101 36.103 69.75 0 21.561-16.906 32.726-25.28 36.933-1.793 92.651-59.084 157.913-141.594 162.157v0.228h-6.89c-0.286 0-0.571-0.019-0.864-0.019s-0.575 0.019-0.864 0.019h-6.886v-0.232c-82.51-4.244-139.805-69.506-141.598-162.157-8.367-4.206-25.276-15.371-25.276-36.933 0.011-21.645 4.153-49.023 36.118-69.746zM395.481 572.867c-1.721 33.83 25.802 54.474 47.595 64.798 21.79 10.324 38.996-10.324 46.449-19.498 5.973-7.351 17.457-15.055 21.793-17.838v-1.089h15.497v1.089c4.332 2.779 15.821 10.484 21.797 17.838 7.454 9.174 24.652 29.818 46.445 19.498 21.793-10.324 49.312-30.967 47.595-64.798-1.721-33.834 0.080-44.782 0.080-44.782-11.515-19.604-48.859-78.844-86.507-91.087-21.455-6.974-29.555-7.476-30.061-7.499h-14.191c-0.506 0.023-8.611 0.525-30.065 7.499-37.637 12.242-74.988 71.482-86.496 91.087-0.008 0 1.789 10.948 0.069 44.782zM805.991 310.795c-58.829 62.803-147.871 104.943-173.315 114.486s-43.724-7.952-43.724-7.952 0-5.565 0-150.254c-16.696-20.674-42.928-5.569-42.928-5.569s0 85.864 0 103.352c0 16.095-10.118 30.13-27.838 32.277v0.316c-0.818 0-1.599-0.061-2.387-0.11-0.788 0.053-1.568 0.11-2.387 0.11v-0.316c-17.724-2.143-27.838-16.182-27.838-32.277 0-17.492 0-103.352 0-103.352s-26.24-15.105-42.932 5.569c0 144.689 0 150.254 0 150.254s-18.28 17.496-43.724 7.952c-25.444-9.543-114.486-51.683-173.315-114.486-21.466-26.236-23.057-108.121 5.565-143.101 28.619-34.976 49.293-50.876 84.273-50.876 31.489 0 170.536 0 197.971 0 0 0 1.728 0 4.774 0 27.435 0 166.478 0 197.971 0 34.976 0 55.65 15.901 84.273 50.876s27.028 116.865 5.562 143.101z" />
<glyph unicode="&#xe920;" glyph-name="right" d="M512 887.071c59.342 0 116.886-11.589 171.033-34.466 52.349-22.178 99.303-53.847 139.764-94.208 40.361-40.361 72.13-87.415 94.208-139.764 22.978-54.247 34.566-111.791 34.566-171.133s-11.589-116.886-34.466-171.033c-22.178-52.349-53.847-99.303-94.208-139.764-40.361-40.361-87.415-72.13-139.764-94.208-54.247-22.978-111.791-34.566-171.133-34.566s-116.886 11.589-171.033 34.466c-52.349 22.178-99.303 53.847-139.764 94.208-40.361 40.361-72.13 87.415-94.208 139.764-22.978 54.247-34.566 111.791-34.566 171.133s11.589 116.886 34.466 171.033c22.178 52.349 53.847 99.303 94.208 139.764 40.361 40.361 87.415 72.13 139.764 94.208 54.247 22.978 111.791 34.566 171.133 34.566zM512 959.001c-282.524 0-511.5-228.976-511.5-511.5s228.976-511.5 511.5-511.5 511.5 228.976 511.5 511.5-228.976 511.5-511.5 511.5v0zM681.435 474.674l-235.57 220.784c-14.486 13.587-37.264 12.887-50.85-1.598s-12.887-37.264 1.598-50.85l207.497-194.51-207.597-194.61c-14.486-13.587-15.185-36.364-1.598-50.85s36.364-15.185 50.85-1.598l235.57 220.784c7.293 6.793 11.389 16.284 11.389 26.274s-4.096 19.481-11.289 26.174z" />
<glyph unicode="&#xe921;" glyph-name="menu" d="M960 384h-896c-35.2 0-64 28.8-64 64s28.8 64 64 64h896c35.2 0 64-28.8 64-64s-28.8-64-64-64zM960 760h-896c-35.2 0-64 28.8-64 64s28.8 64 64 64h896c35.2 0 64-28.8 64-64s-28.8-64-64-64zM64 136h896c35.2 0 64-28.8 64-64s-28.8-64-64-64h-896c-35.2 0-64 28.8-64 64s28.8 64 64 64z" />
<glyph unicode="&#xe926;" glyph-name="message" horiz-adv-x="1028" d="M521.505-29.42c-269.51 0-488.768 219.258-488.768 488.764s219.262 488.768 488.768 488.768 488.772-219.262 488.772-488.768c0.004-269.506-219.262-488.764-488.772-488.764zM521.505 936.695c-263.21 0-477.348-214.138-477.348-477.351s214.138-477.344 477.348-477.344c263.21 0 477.344 214.134 477.344 477.344 0.011 263.214-214.126 477.351-477.344 477.351zM696.822 356.822v280.134c0 13.62-11.036 24.66-24.656 24.66h-442.14c-13.62 0-24.66-11.039-24.66-24.66v-280.134c0-13.613 11.039-24.66 24.66-24.66h61.238v-70.671l94.562 70.671h286.339c13.617 0 24.656 11.047 24.656 24.66zM356.5 448.506h-80.458v97.31h80.458v-97.31zM488.064 448.506h-80.462v97.31h80.462v-97.31zM621.8 448.506h-80.458v97.31h80.458v-97.31zM808.625 575.353h-92.468v-236.894c0-13.167-10.674-23.838-23.841-23.838h-291.962v-26.807c0-11.831 9.593-21.432 21.428-21.432h248.406l80.496-72.746v72.746h57.942c11.831 0 21.428 9.597 21.428 21.432v266.111c0 11.835-9.597 21.428-21.428 21.428z" />
<glyph unicode="&#xe927;" glyph-name="video" horiz-adv-x="1028" d="M521.505-29.42c-269.51 0-488.768 219.258-488.768 488.764s219.262 488.768 488.768 488.768 488.772-219.262 488.772-488.768c0.004-269.506-219.262-488.764-488.772-488.764zM521.505 936.695c-263.21 0-477.348-214.138-477.348-477.351s214.138-477.344 477.348-477.344c263.21 0 477.344 214.134 477.344 477.344 0.011 263.214-214.126 477.351-477.344 477.351zM247.435 696.428v-506.374h555.777v506.374h-555.777zM702.864 669.667h38.082v-58.665h-38.082v58.665zM608.176 669.667h38.082v-58.665h-38.082v58.665zM508.342 669.667h38.082v-58.665h-38.082v58.665zM408.507 669.667h38.082v-58.665h-38.082v58.665zM305.072 669.667h38.082v-58.665h-38.082v58.665zM347.524 219.903h-38.078v58.665h38.078v-58.665zM450.964 219.903h-38.082v58.665h38.082v-58.665zM550.794 219.903h-38.082v58.665h38.082v-58.665zM650.632 219.903h-38.082v58.665h38.082v-58.665zM745.32 219.903h-38.082v58.665h38.082v-58.665zM768.221 305.329h-485.795v279.944h485.791v-279.944zM474.576 538.272v-175.648l122.263 87.828z" />
<glyph unicode="&#xe928;" glyph-name="news" horiz-adv-x="1028" d="M521.505-29.42c-269.51 0-488.768 219.258-488.768 488.764s219.262 488.768 488.768 488.768 488.772-219.262 488.772-488.768c0.004-269.506-219.262-488.764-488.772-488.764zM521.505 936.695c-263.21 0-477.348-214.138-477.348-477.351s214.138-477.344 477.348-477.344c263.21 0 477.344 214.134 477.344 477.344 0.011 263.214-214.126 477.351-477.344 477.351zM843.818 461.959c0 175.801-141.51 319.084-316.591 322.153v0.145h-11.42v-0.145c-173.174-3.034-313.413-143.269-316.443-316.446h-0.145v-11.42h0.145c3.038-173.174 143.272-313.405 316.443-316.443v-0.145h11.42v0.145c175.081 3.076 316.591 146.352 316.591 322.156zM637.48 273.33c-39.449 19.589-76.644 27.785-110.253 29.095v153.821h169.695c0.141-62.643-19.745-123.797-59.441-182.915zM412.326 267.746c8.729 3.948 17.979 7.636 27.747 10.86 25.375 8.359 50.633 12.65 75.734 12.947v-133.756c-42.452 35.711-76.983 72.407-103.481 109.949zM505.601 151.478c-64.954 3.293-124.669 26.67-173.159 63.949 11.325 10.312 35.646 30.415 69.426 47.34 26.62-38.044 61.234-75.19 103.732-111.289zM347.048 456.245h168.758v-153.627c-30.096-0.206-57.036-5.786-79.75-13.308-10.731-3.559-20.842-7.629-30.313-11.972-38.581 57.854-58.231 117.665-58.695 178.907zM515.807 771.98v-145.979c-22.909 0.921-45.943 5.181-69.072 12.802-12.87 4.241-24.881 9.288-35.92 14.698 42.738 65.448 93.233 108.822 104.992 118.479zM400.662 658.719c-39.985 21.5-64.999 46.316-68.311 49.696 46.643 35.886 103.694 58.806 165.793 63.45-20.613-18.291-61.737-58.132-97.482-113.146zM527.227 467.665v147.14c33.864 0.415 71.592 7.728 111.719 26.746 30.058-48.334 55.014-107.722 57.755-173.886h-169.474zM527.227 625.841v144.034c9.684-7.861 61.726-51.695 105.681-118.856-34.801-16.472-70.074-24.881-105.681-25.177zM542.343 772.060c64.843-4.313 124.277-28.581 172.26-66.727-23.548-20.278-47.374-36.712-71.455-49.243-37.839 58.178-81.695 99.37-100.805 115.971zM442.718 628.102c21.017-6.966 45.68-12.227 73.088-13.141v-147.296h-168.621c2.113 67.013 27.126 127.185 57.435 176.098 11.641-5.737 24.37-11.112 38.097-15.661zM527.227 154.123v137.319c34.995-1.287 69.662-10.442 103.854-27.389-26.616-37.542-61.273-74.223-103.854-109.93zM641.31 258.727c22.17-12.029 44.135-27.362 65.852-45.981-46.655-34.846-103.405-56.845-164.982-60.907 40.34 34.709 73.42 70.382 99.13 106.888zM832.253 467.665h-124.125c-2.722 68.166-28.208 129.264-58.973 178.972 24.089 12.497 48.988 29.273 74.387 51.318 65.209-55.901 107.037-138.255 108.711-230.29zM327.292 704.438l-3.651-3.445c1.412-1.496 27.244-28.524 70.862-52.015-31.051-50.309-56.647-112.233-58.745-181.317h-124.974c1.736 95.658 46.849 180.867 116.508 236.776zM210.784 456.245h124.848c0.453-63.1 20.45-124.589 59.719-183.913-35.867-18.097-60.941-39.361-72.019-49.704-67.424 55.936-110.843 139.774-112.549 233.617zM514.962 151.246l0.845 1.016v-1.032c-0.282-0.004-0.56 0.008-0.845 0.015zM716.301 219.918c-23.381 20.225-46.327 36.034-68.604 48.105 40.503 60.671 60.797 123.607 60.652 188.222h123.912c-1.743-95.403-46.609-180.418-115.959-236.327z" />
<glyph unicode="&#xe929;" glyph-name="love" horiz-adv-x="1028" d="M521.505-29.42c-269.51 0-488.768 219.258-488.768 488.764s219.262 488.768 488.768 488.768 488.772-219.262 488.772-488.768c0.004-269.506-219.262-488.764-488.772-488.764zM521.505 936.695c-263.21 0-477.348-214.138-477.348-477.351s214.138-477.344 477.348-477.344c263.21 0 477.344 214.134 477.344 477.344 0.011 263.214-214.126 477.351-477.344 477.351zM735.426 680.067c-158.408 26.594-213.921-114.471-213.921-114.471v2.086c0 0-55.513 141.065-213.921 114.467-158.404-26.594-146.843-220.845-83.249-296.001 63.595-75.159 257.873-143.371 297.169-263.625v-2.086c39.296 120.246 233.575 188.469 297.169 263.629 63.598 75.159 75.163 269.411-83.249 296.001z" />
<glyph unicode="&#xe92b;" glyph-name="support" horiz-adv-x="1028" d="M521.505-29.42c-269.51 0-488.768 219.258-488.768 488.764s219.262 488.768 488.768 488.768 488.772-219.262 488.772-488.768c0.004-269.506-219.262-488.764-488.772-488.764zM521.505 936.695c-263.21 0-477.348-214.138-477.348-477.351s214.138-477.344 477.348-477.344c263.21 0 477.344 214.134 477.344 477.344 0.011 263.214-214.126 477.351-477.344 477.351zM771.445 748.751h-492.243c-28.010 0-50.8-22.787-50.8-50.8v-490.363c0-28.013 22.791-50.8 50.8-50.8h492.243c28.010 0 50.8 22.787 50.8 50.8v490.363c0 28.013-22.787 50.8-50.8 50.8zM771.445 168.208h-492.243c-21.713 0-39.38 17.667-39.38 39.38v263.252h173.204v-50.123l128.16 100.242-128.16 100.245v-45.68h-173.204v122.427c0 21.717 17.667 39.38 39.38 39.38h492.243c21.713 0 39.38-17.667 39.38-39.38v-261.371h-175.74v45.68l-128.16-100.245 128.16-100.242v50.123h175.74v-124.308c0-21.713-17.667-39.38-39.38-39.38z" />
<glyph unicode="&#xe92c;" glyph-name="pattern" horiz-adv-x="1028" d="M521.505-29.42c-269.51 0-488.768 219.258-488.768 488.764s219.262 488.768 488.768 488.768 488.772-219.262 488.772-488.768c0.004-269.506-219.262-488.764-488.772-488.764zM521.505 936.695c-263.21 0-477.348-214.138-477.348-477.351s214.138-477.344 477.348-477.344c263.21 0 477.344 214.134 477.344 477.344 0.011 263.214-214.126 477.351-477.344 477.351zM206.932 469.649l73.857 75.129-79.465 76.062 149.089 155.758 81.547-78.056 71.474 72.704v-296.503l-296.503-5.093zM217.469 621.193l79.579-76.172-62.403-63.473 257.37 4.423v257.37l-59.811-60.839-81.44 77.95-133.295-139.26zM831.895 469.649l-296.503 5.093v296.503l71.474-72.704 81.551 78.056 149.085-155.758-79.465-76.062 73.857-75.129zM546.816 485.972l257.37-4.423-62.407 63.473 79.575 76.172-133.291 139.26-81.44-77.953-59.811 60.839v-257.367zM350.41 127.777l-149.089 155.758 79.465 76.065-73.854 75.129 296.503-5.093v-296.503l-71.474 72.704-81.551-78.060zM217.469 283.182l133.295-139.256 81.44 77.957 59.811-60.842v257.37l-257.37 4.423 62.403-63.477-79.579-76.176zM688.421 127.777l-81.551 78.060-71.474-72.704v296.503l296.503 5.093-73.854-75.125 79.465-76.065-149.089-155.762zM606.623 221.883l81.44-77.957 133.295 139.256-79.575 76.176 62.407 63.477-257.37-4.423v-257.37l59.803 60.842z" />
<glyph unicode="&#xe92d;" glyph-name="text" horiz-adv-x="1028" d="M521.505-29.42c-269.51 0-488.768 219.258-488.768 488.764s219.262 488.768 488.768 488.768 488.772-219.262 488.772-488.768c0.004-269.506-219.262-488.764-488.772-488.764zM521.505 936.695c-263.21 0-477.348-214.138-477.348-477.351s214.138-477.344 477.348-477.344c263.21 0 477.344 214.134 477.344 477.344 0.011 263.214-214.126 477.351-477.344 477.351zM347.38 524.396h242.757v-41.497h-242.757v41.497zM347.38 437.254h242.757v-41.493h-242.757v41.493zM347.38 351.15h242.757v-41.501h-242.757v41.501zM749.64 738.108h-362.572c-17.020 0-30.868-13.346-30.868-29.749v-53.244h-70.283c-17.020 0-30.868-13.346-30.868-29.749v-419.791c0-16.407 13.849-29.749 30.868-29.749h362.576c17.024 0 30.865 13.346 30.865 29.749v53.24h70.283c17.020 0 30.865 13.346 30.865 29.749v419.794c0 16.407-13.849 29.749-30.865 29.749zM666.906 205.571c0-9.543-8.261-17.301-18.417-17.301h-362.572c-10.156 0-18.417 7.758-18.417 17.301v419.791c0 9.54 8.261 17.301 18.417 17.301h362.576c10.156 0 18.417-7.762 18.417-17.301v-419.791zM768.057 288.564c0-9.54-8.261-17.301-18.417-17.301h-70.283v354.098c0 16.407-13.845 29.749-30.865 29.749h-279.845v53.248c0 9.536 8.264 17.301 18.421 17.301h362.572c10.156 0 18.417-7.766 18.417-17.301v-419.794z" />
<glyph unicode="&#xe92e;" glyph-name="system" horiz-adv-x="1028" d="M521.505-29.42c-269.51 0-488.768 219.258-488.768 488.764s219.262 488.768 488.768 488.768 488.772-219.262 488.772-488.768c0.004-269.506-219.262-488.764-488.772-488.764zM521.505 936.695c-263.21 0-477.348-214.138-477.348-477.351s214.138-477.344 477.348-477.344c263.21 0 477.344 214.134 477.344 477.344 0.011 263.214-214.126 477.351-477.344 477.351zM517.714 786.712c-184.708 0-334.981-150.273-334.981-334.981 0-184.704 150.273-334.981 334.981-334.981 184.704 0 334.977 150.277 334.977 334.981 0 184.708-150.273 334.981-334.977 334.981zM463.438 712.28c3.955 8.272-0.579 12.406 6.513 16.544s23.636 7.735 26.392 8.272c2.756 0.537 11.028 1.378 17.233 0 6.201-1.378 17.229 15.288 22.745 0.75s8.272-23.571 8.272-23.571 4.138-6.129 0-10.263c-4.134-4.134-18.718-8.272-20.385-12.406s-10.628-6.894-10.628-6.894 6.201-5.516 0-9.65c-6.205-4.134-10.278-6.894-8.93-15.162 1.348-8.272 5.546-12.947 0-20.678s-17.949-11.028-19.33 0-8.272 45.494-8.272 45.494-17.56 19.292-13.609 27.564zM311.616 597.862c6.894 5.512 15.166 22.056 17.922 31.706s5.512 24.816 6.894 30.328c0.761 3.049 1.104 13.696 1.256 23.765 0.126 8.131 0.126 15.889 0.126 18.969 0 1.287-0.049 2.927-0.126 4.716 5.832 10.008 13.167 20.134 20.971 24.9 20.91 11.884 43.263 21.5 66.735 28.527 0.518-12.566 2.973-40.435 14.435-58.14 15.162-23.434 26.19-59.278 33.084-77.2s-11.816-48.25-23.826-51.006c-12.014-2.756-13.396-1.378-38.208 0-24.816 1.378-33.084-2.76-37.222-8.272-1.724-2.295-6.075-7.937-10.666-14.039-3.715-4.933-7.545-10.13-10.309-14.138 0 0 0 0.004 0 0.008-16.551-10.689-39.616 19.677-39.947 20.118-0.7 2.52-1.112 4.846-1.112 6.673-0.008 6.89-6.902 27.568-0.008 33.084zM463.438 184.291c-4.317-5.516-4.313-6.894-11.207-15.158-6.898-8.276-12.406-11.024-16.544-13.784s-17.922-6.902-17.922-6.902h-8.272c0 0 11.131-3.917 26.114-8.66-138.225 36.407-240.469 162.447-240.469 311.947 0 35.886 5.977 70.378 16.841 102.647 11.249 5.291 31.569 12.292 43.115 0.746 16.544-16.544 42.738-31.706 42.738-31.706l13.784-24.816 11.028-12.406c0 0 13.716-4.298 16.506-6.285 2.794-1.987 15.737-5.436 23.472-8.881s19.3-6.898 19.3-6.898l16.544-12.406c0 0 8.272-11.024 8.272-15.158 0-4.142 1.382-16.544 2.76-20.686 1.378-4.134 1.378-4.142 1.378-9.65s-1.382-5.508 0-17.918c1.378-12.41 2.76-19.3 6.894-24.82 4.134-5.508 17.918-13.784 17.918-13.784s6.898-4.134 9.65-8.268c2.76-4.134 4.138-4.134 4.138-12.41 0-8.268 2.76-33.084-2.756-34.47-5.516-1.374-5.516-5.508-5.516-15.158s1.374-19.3 4.134-23.434c2.76-4.134 21.043-6.894 18.105-16.544-2.935-9.65 0.183-8.268 0-17.918-0.183-9.658 0.183-2.76 0-16.544-0.187-13.788 4.313-15.162-0.004-20.678zM478.421 282.169c-3.011-7.83-4.705-12.239-5.661-14.72-6.243-2.543-9.844-0.118-11.862 2.973 0.483 1.85 0.994 3.955 1.431 6.14 0.674 3.377 1.169 6.886 1.108 9.741-0.183 8.268 0 16.544 0 16.544s-5.333 9.65 0 15.166c5.333 5.508 1.561 9.642 0 17.918-1.561 8.268-7.073 13.784-7.073 13.784s-1.378 2.76-8.272 5.516-13.784 8.268-16.544 12.41c-2.76 4.134-4.138 6.894-6.894 12.402-2.756 5.516 0 13.784 0 13.784l6.894 27.576c0 20.678 15.162 29.312 15.162 29.312l16.723 7.906h13.605c0 0 12.406 2.756 19.296-6.894 6.894-9.65 17.922-13.784 17.233-17.918-0.689-4.142 19.989-19.3 19.989-19.3h12.402c0 0 18.127-7.583 20.952-31.101-0.129-0.678-0.091-1.359 0.202-2.044 0.518-6.544-0.118-14.229-2.585-23.263-0.952-1.047-2.040-2.052-3.407-2.87-6.89-4.134-15.158-6.894-19.296-9.65-4.134-2.76-14.587-6.902-17.633-9.65-3.045-2.76-1.671-6.894-10.628-12.41-8.961-5.508-19.985-17.926-24.123-24.812-4.126-6.886-4.13 1.382-11.020-16.54zM765.777 293.197c-3.373-9.65-6.129-9.65-6.129-19.3s-2.756-12.41-2.756-17.918c0-3.236 0.4-12.49 0.727-19.597-8.112-9.026-16.757-17.553-25.828-25.615-35.554-28.95-64.006-37.45-67.908-38.52-14.085-2.745-36.019-3.152-65.528 7.91-55.14 20.674-80.645 37.218-80.645 37.218l-10.339 9.65-12.406 24.82c0 0-1.378-0.537 0 11.024s17.922 16.544 18.611 23.434c0.689 6.894-0.716 9.65 8.257 16.544s13.114 8.268 20.004 16.544c6.894 8.268 5.516 8.276 12.41 13.784 6.89 5.516 16.54 9.65 19.296 13.784 2.76 4.142 9.65 12.41 11.028 16.544 1.374 4.142 9.65 15.166 11.028 23.442 1.374 8.268 4.13 12.402 2.756 16.544-1.378 4.134-2.756 12.402-9.65 13.784-6.894 1.374-24.816 9.642-24.816 9.642s-11.028 6.894-15.162 12.41c-4.138 5.516-16.571 23.442-26.894 28.261-10.328 4.827-11.706 6.041-25.49 12.326s-28.946 9.041-39.974 10.419c-11.032 1.378-26.194 1.378-31.71 2.756s-22.056 5.516-26.19 5.516-23.438 5.512-23.438 5.512l-11.028 9.65-5.516 12.406c0 0 16.544 35.844 44.116 31.706s60.835 2.76 60.835 2.76 3.955 4.134 8.089 6.894c4.138 2.756 22.060 13.247 24.816 16.544 2.756 3.293 13.784 6.894 17.233 11.028s-0.716 9.654 8.257 11.028 10.358 2.756 15.87 5.512 9.646 4.138 13.784 6.894c4.134 2.756 12.41 5.512 19.3 9.65 6.89 4.134 19.296 15.166 23.43 17.922 4.138 2.756 6.894 13.784 8.272 19.3 1.382 5.516-2.756 11.028 5.516 16.544s15.162 6.894 22.056 8.272c6.898 1.378 35.844 2.76 35.844 2.76s15.166 0 16.544 1.378c0.305 0.305 1.226 0.678 2.497 1.1l15.425-21.778c0 0-5.512-20.678 0-31.706s-4.138-22.056 0-30.328c4.134-8.272-10.663-24.816-10.845-33.084-0.187-8.272-7.080-17.922-12.596-23.434s-11.024-8.272-13.784-12.406-12.41-4.138-19.3-9.65c-6.89-5.512-12.406-8.272-13.784-12.406-1.374-4.134 6.898-5.512 0-13.784-6.894-8.272-6.894-20.678-6.894-20.678s-6.35-18.611 0-18.611c6.346 0 12.406-0.689 15.162-4.827 2.76-4.138 4.134-7.541 13.784-12.044 9.654-4.5 38.604-8.634 38.604-8.634h11.397c0 0-14.797 0.008 0-5.508 14.797-5.524 17.553-5.524 23.069-11.032s-6.898 12.41 5.512-5.508c12.406-17.926 5.508-6.902 12.406-17.926s12.406-17.918 15.166-22.060c2.76-4.134 6.894-9.642 6.894-20.678 0-11.024 0-20.678 0-24.812 0-4.142 1.382-13.784 0-22.060-1.374-8.28 3.989-9.661 0.617-19.311zM805.138 442.081c0-6.894-4.134-9.65-4.134-16.544s0-6.894 0-16.544-1.382-19.3 0-23.434 0.004-24.82-11.024-13.784c-11.028 11.024-16.544 15.166-19.3 24.812-2.76 9.65-8.272 16.551-12.406 23.442-4.138 6.886-5.52 12.402-11.028 13.784-5.512 1.374-1.108 2.752-12.962 9.642-11.85 6.898-13.228 5.516-18.744 8.272s-24.816 6.894-24.816 6.894h-8.272c0 0-24.816 0.773-24.816 11.032 0 0 2.76 2.596 0 10.259s-2.756 20.069 0 24.203 12.406 12.406 15.162 16.544-6.894 0 2.76 4.134c9.646 4.134 19.296 8.272 26.19 15.166 6.898 6.894 9.65 9.65 12.41 13.784s13.788 22.056 13.788 22.056 16.544 0 22.056 0c5.508 0 6.894-2.756 12.406-6.894s11.028-9.65 16.544-17.922 9.646-15.162 12.406-19.3c2.764-4.134 12.406-16.544 13.784-20.678 1.382-4.134 4.142-9.65 5.516-17.922 1.378-8.272-4.134-13.788 0-17.922 4.138-4.134 1.835-6.894 0.228-16.544-1.61-9.642-5.748-9.642-5.748-16.536z" />
<glyph unicode="&#xe92f;" glyph-name="process" horiz-adv-x="1028" d="M840.514 488.294c-10.092 10.853-24.492 16.357-42.795 16.357l-86.808-0.004v42.711h-30.632v-42.711l-87.474-0.004c0 0-1.108 0.114-3.019 0.114-12.969 0-55.296-4.903-55.296-68.010l0.008-70.013v-58.6c-0.202-1.561-3.377-28.219 13.243-47.203 10.526-12.018 26.555-18.112 47.656-18.112l215.832 0.008c0.445 0.046 44.953 4.854 44.953 45.147l-0.004 152.115c0.084 1.184 1.915 29.292-15.665 48.204zM851.979 440.242v-73.511h-313.291v70.013c0 25.592 7.233 43.899 21.493 54.413 11.5 8.481 24.534 9.395 29.605 9.395 1.599 0 2.55-0.084 2.809-0.103h205.124c17.077 0 30.434-5.048 39.696-14.998 16.331-17.545 14.583-44.782 14.564-45.208zM462.087 402.875c-8.649 2.596-13.86 12.185-20.453 24.329-12.098 22.277-28.367 52.178-79.37 56.305v38.646h-30.629v-39.376c-48.36-6.239-70.736-36.548-86.046-57.405-7.686-10.476-14.347-19.555-21.047-21.192-49.7-0.853-71.954-35.090-71.954-68.775 0-47.153 47.233-61.486 72.46-62.483h201.625c57.317 0 84.010 19.353 84.010 60.907 0 37.663-14.987 58.958-48.596 69.046zM426.673 285.523l-201.374-0.004c-2.455 0.095-60.108 2.927-60.108 49.883 0 25.608 15.748 55.688 60.138 56.183l1.119 0.114c11.717 2.254 19.867 13.358 29.304 26.217 17.488 23.826 39.251 53.48 94.261 53.48 53.282 0 67.767-26.677 80.55-50.206 7.343-13.525 14.279-26.3 27.907-30.385 28.139-8.439 39.616-24.949 39.616-56.975-0.004-23.887-8.489-48.307-71.414-48.307zM331.635 591.809h30.629v-44.455h-30.629v44.455zM362.268 634.692h65.11v-30.629h-65.11v30.629zM596.097 618.068l-77.013 49.704v-33.080h-56.72v-30.629h56.72v-35.703zM610.098 634.692h58.806v-30.629h-58.806v30.629zM679.883 633.466h30.632v-58.806h-30.632v58.806zM521.505-29.42c-269.51 0-488.768 219.258-488.768 488.764s219.262 488.768 488.768 488.768 488.772-219.262 488.772-488.768c0.004-269.506-219.262-488.764-488.772-488.764zM521.505 936.695c-263.21 0-477.348-214.138-477.348-477.351s214.138-477.344 477.348-477.344c263.21 0 477.344 214.134 477.344 477.344 0.011 263.214-214.126 477.351-477.344 477.351z" />
<glyph unicode="&#xe931;" glyph-name="about" horiz-adv-x="1028" d="M521.505-29.42c-269.51 0-488.768 219.258-488.768 488.764s219.262 488.768 488.768 488.768 488.772-219.262 488.772-488.768c0.004-269.506-219.262-488.764-488.772-488.764zM521.505 936.695c-263.21 0-477.348-214.138-477.348-477.351s214.138-477.344 477.348-477.344c263.21 0 477.344 214.134 477.344 477.344 0.011 263.214-214.126 477.351-477.344 477.351zM749.522 142.597h-170.266v125.248h-121.464v-125.248h-171.792v329.149h-118.986l356.889 325.822 351.125-325.822h-125.507v-329.149zM590.681 154.017h147.426v329.149h107.832l-322.092 298.882-327.383-298.882h100.961v-329.149h148.952v125.248h144.308v-125.248z" />
<glyph unicode="&#xe932;" glyph-name="note" horiz-adv-x="1028" d="M521.505-29.42c-269.51 0-488.768 219.258-488.768 488.764s219.262 488.768 488.768 488.768 488.772-219.262 488.772-488.768c0.004-269.506-219.262-488.764-488.772-488.764zM521.505 936.695c-263.21 0-477.348-214.138-477.348-477.351s214.138-477.344 477.348-477.344c263.21 0 477.344 214.134 477.344 477.344 0.011 263.214-214.126 477.351-477.344 477.351zM838.892 657.486l-110.013 110.090c-8.698 8.698-19.033 12.033-30.594 13.11-19.582 1.823-32.977-8.877-35.912-12.063l-385.408-351.807-81.121-246.658 266.251 33.179 376.242 376.242c34.31 37.96 12.124 62.719 0.556 77.908zM695.41 666.569l49.365-50.119-344.144-327.406-52.974 59.658 347.753 317.866zM634.659 728.241l51.923-52.711-347.273-317.432-48.379 54.474 343.729 315.67zM280.214 192.818c-0.411 46.076-27.914 51.919-42.448 56.202l47.066 151.487 165.191-186.010-169.809-21.679zM461.493 220.512l-52.51 59.129 344.616 327.851 47.077-47.801-339.184-339.18z" />
<glyph unicode="&#xe933;" glyph-name="culture" horiz-adv-x="1028" d="M521.505-29.42c-269.51 0-488.768 219.258-488.768 488.764s219.262 488.768 488.768 488.768 488.772-219.262 488.772-488.768c0.004-269.506-219.262-488.764-488.772-488.764zM521.505 936.695c-263.21 0-477.348-214.138-477.348-477.351s214.138-477.344 477.348-477.344c263.21 0 477.344 214.134 477.344 477.344 0.011 263.214-214.126 477.351-477.344 477.351zM574.612 120.358l-53.103 29.761-53.1-29.761-41.303 44.713-59.704-11.896-25.459 55.285-60.454 7.138-7.13 60.446-55.292 25.467 11.9 59.697-44.721 41.303 29.768 53.103-29.768 53.103 44.721 41.299-11.9 59.7 55.292 25.459 7.13 60.454 60.454 7.13 25.459 55.292 59.704-11.9 41.303 44.717 53.1-29.765 53.103 29.765 41.303-44.717 59.7 11.9 25.459-55.292 60.458-7.13 7.134-60.454 55.285-25.463-11.9-59.7 44.713-41.299-29.757-53.103 29.757-53.103-44.713-41.303 11.9-59.697-55.285-25.467-7.134-60.446-60.458-7.138-25.459-55.285-59.7 11.896-41.303-44.71zM521.509 163.21l50.831-28.489 39.532 42.802 57.142-11.39 24.363 52.921 57.869 6.825 6.822 57.858 52.921 24.374-11.393 57.138 42.802 39.532-28.485 50.831 28.485 50.827-42.802 39.529 11.393 57.142-52.921 24.37-6.822 57.866-57.869 6.825-24.363 52.921-57.142-11.39-39.532 42.799-50.831-28.489-50.827 28.489-39.532-42.799-57.142 11.39-24.37-52.921-57.862-6.825-6.825-57.866-52.921-24.37 11.39-57.138-42.802-39.529 28.493-50.827-28.493-50.831 42.802-39.532-11.39-57.138 52.921-24.374 6.825-57.858 57.866-6.825 24.37-52.921 57.142 11.39 39.532-42.802 50.823 28.485zM304.535 449.644l69.392 75.845 119.42-104.893 174.289 193.65 79.073-72.616-246.906-271.116z" />
<glyph unicode="&#xe934;" glyph-name="honor" horiz-adv-x="1028" d="M521.505-29.42c-269.51 0-488.768 219.258-488.768 488.764s219.262 488.768 488.768 488.768 488.772-219.262 488.772-488.768c0.004-269.506-219.262-488.764-488.772-488.764zM521.505 936.695c-263.21 0-477.348-214.138-477.348-477.351s214.138-477.344 477.348-477.344c263.21 0 477.344 214.134 477.344 477.344 0.011 263.214-214.126 477.351-477.344 477.351zM616.083 394.417c234.584 54.051 225.942 294.040 225.942 294.040h-648.626c0 0-8.649-239.993 225.935-294.040 0 0 14.595-30.819 61.623-58.379 0-127.562 0-153.322 0-153.322h-86.465v-85.407h248.642v85.407h-88.662c0 0 0 25.764 0 153.322 47.016 27.56 61.611 58.379 61.611 58.379zM720.218 652.781h84.318c-21.622-171.526-146.295-200.35-146.295-200.35 40.359 46.845 61.977 200.35 61.977 200.35zM230.868 652.781h84.326c0 0 21.618-153.509 61.981-200.354 0 0-124.681 28.828-146.306 200.354z" />
</font>
</defs>
</svg>
